{
    "asset" : {
        "generator" : "Khronos glTF Blender I/O v1.6.16",
        "version" : "2.0"
    },
    "scene" : 0,
    "scenes" : [
        {
            "extras" : {
                "glTF2ExportSettings" : {
                    "export_extras" : 1,
                    "export_format" : "GLTF_EMBEDDED",
                    "use_selection" : 1
                }
            },
            "name" : "Scene",
            "nodes" : [
                0
            ]
        }
    ],
    "nodes" : [
        {
            "mesh" : 0,
            "name" : "path354.001",
            "rotation" : [
                0.5030875205993652,
                0.4966931641101837,
                -0.4895186126232147,
                0.5104609131813049
            ],
            "scale" : [
                70.3922348022461,
                70.39221954345703,
                70.3922348022461
            ],
            "translation" : [
                6.210000038146973,
                -3.5210537910461426,
                0.8842393159866333
            ]
        }
    ],
    "animations" : [
        {
            "channels" : [
                {
                    "sampler" : 0,
                    "target" : {
                        "node" : 0,
                        "path" : "translation"
                    }
                },
                {
                    "sampler" : 1,
                    "target" : {
                        "node" : 0,
                        "path" : "rotation"
                    }
                },
                {
                    "sampler" : 2,
                    "target" : {
                        "node" : 0,
                        "path" : "scale"
                    }
                }
            ],
            "name" : "path354.001Action.001",
            "samplers" : [
                {
                    "input" : 4,
                    "interpolation" : "LINEAR",
                    "output" : 5
                },
                {
                    "input" : 4,
                    "interpolation" : "LINEAR",
                    "output" : 6
                },
                {
                    "input" : 4,
                    "interpolation" : "LINEAR",
                    "output" : 7
                }
            ]
        }
    ],
    "materials" : [
        {
            "alphaMode" : "BLEND",
            "emissiveFactor" : [
                0.34883999824523926,
                0.33667072653770447,
                0.32718396186828613
            ],
            "name" : "SVGMat.070",
            "pbrMetallicRoughness" : {
                "baseColorFactor" : [
                    0.38437673449516296,
                    0.38437673449516296,
                    0.38437673449516296,
                    1
                ],
                "metallicFactor" : 0,
                "roughnessFactor" : 0.5
            }
        }
    ],
    "meshes" : [
        {
            "name" : "path354.001",
            "primitives" : [
                {
                    "attributes" : {
                        "POSITION" : 0,
                        "NORMAL" : 1,
                        "TEXCOORD_0" : 2
                    },
                    "indices" : 3,
                    "material" : 0
                }
            ]
        }
    ],
    "accessors" : [
        {
            "bufferView" : 0,
            "componentType" : 5126,
            "count" : 2702,
            "max" : [
                0.03729911148548126,
                0.004999999888241291,
                0.020633913576602936
            ],
            "min" : [
                -0.028041018173098564,
                -0.004999999888241291,
                -0.020765645429491997
            ],
            "type" : "VEC3"
        },
        {
            "bufferView" : 1,
            "componentType" : 5126,
            "count" : 2702,
            "type" : "VEC3"
        },
        {
            "bufferView" : 2,
            "componentType" : 5126,
            "count" : 2702,
            "type" : "VEC2"
        },
        {
            "bufferView" : 3,
            "componentType" : 5123,
            "count" : 4956,
            "type" : "SCALAR"
        },
        {
            "bufferView" : 4,
            "componentType" : 5126,
            "count" : 81,
            "max" : [
                3.3333333333333335
            ],
            "min" : [
                0
            ],
            "type" : "SCALAR"
        },
        {
            "bufferView" : 5,
            "componentType" : 5126,
            "count" : 81,
            "type" : "VEC3"
        },
        {
            "bufferView" : 6,
            "componentType" : 5126,
            "count" : 81,
            "type" : "VEC4"
        },
        {
            "bufferView" : 7,
            "componentType" : 5126,
            "count" : 81,
            "type" : "VEC3"
        }
    ],
    "bufferViews" : [
        {
            "buffer" : 0,
            "byteLength" : 32424,
            "byteOffset" : 0
        },
        {
            "buffer" : 0,
            "byteLength" : 32424,
            "byteOffset" : 32424
        },
        {
            "buffer" : 0,
            "byteLength" : 21616,
            "byteOffset" : 64848
        },
        {
            "buffer" : 0,
            "byteLength" : 9912,
            "byteOffset" : 86464
        },
        {
            "buffer" : 0,
            "byteLength" : 324,
            "byteOffset" : 96376
        },
        {
            "buffer" : 0,
            "byteLength" : 972,
            "byteOffset" : 96700
        },
        {
            "buffer" : 0,
            "byteLength" : 1296,
            "byteOffset" : 97672
        },
        {
            "buffer" : 0,
            "byteLength" : 972,
            "byteOffset" : 98968
        }
    ],
    "buffers" : [
        {
            "byteLength" : 99940,
            "uri" : "data:application/octet-stream;base64,"
        }
    ]
}
