{
    "asset" : {
        "generator" : "Khronos glTF Blender I/O v1.6.16",
        "version" : "2.0"
    },
    "scene" : 0,
    "scenes" : [
        {
            "extras" : {
                "glTF2ExportSettings" : {
                    "export_extras" : 1,
                    "export_format" : "GLTF_EMBEDDED",
                    "use_selection" : 1
                }
            },
            "name" : "Scene",
            "nodes" : [
                0,
                1,
                2
            ]
        }
    ],
    "nodes" : [
        {
            "mesh" : 0,
            "name" : "path119.037",
            "rotation" : [
                0.48260200023651123,
                -0.5161840915679932,
                0.47508931159973145,
                0.524346649646759
            ],
            "scale" : [
                9.039815902709961,
                9.039813995361328,
                9.039813995361328
            ],
            "translation" : [
                6.147024154663086,
                -2.5177602767944336,
                2.550020217895508
            ]
        },
        {
            "mesh" : 1,
            "name" : "path119.036",
            "rotation" : [
                0.48260200023651123,
                -0.5161840915679932,
                0.47508931159973145,
                0.524346649646759
            ],
            "scale" : [
                11.21379280090332,
                11.213789939880371,
                11.213790893554688
            ],
            "translation" : [
                6.1586079597473145,
                -2.751213550567627,
                0.5000884532928467
            ]
        },
        {
            "mesh" : 2,
            "name" : "path119.005",
            "rotation" : [
                0.48260200023651123,
                -0.5161840915679932,
                0.47508931159973145,
                0.524346649646759
            ],
            "scale" : [
                7.4947943687438965,
                7.494792938232422,
                7.494792938232422
            ],
            "translation" : [
                6.138791561126709,
                -2.6875557899475098,
                -1.4169257879257202
            ]
        }
    ],
    "animations" : [
        {
            "channels" : [
                {
                    "sampler" : 0,
                    "target" : {
                        "node" : 0,
                        "path" : "translation"
                    }
                },
                {
                    "sampler" : 1,
                    "target" : {
                        "node" : 0,
                        "path" : "rotation"
                    }
                },
                {
                    "sampler" : 2,
                    "target" : {
                        "node" : 0,
                        "path" : "scale"
                    }
                }
            ],
            "name" : "path119.037Action",
            "samplers" : [
                {
                    "input" : 10,
                    "interpolation" : "LINEAR",
                    "output" : 11
                },
                {
                    "input" : 10,
                    "interpolation" : "LINEAR",
                    "output" : 12
                },
                {
                    "input" : 10,
                    "interpolation" : "LINEAR",
                    "output" : 13
                }
            ]
        },
        {
            "channels" : [
                {
                    "sampler" : 0,
                    "target" : {
                        "node" : 1,
                        "path" : "translation"
                    }
                },
                {
                    "sampler" : 1,
                    "target" : {
                        "node" : 1,
                        "path" : "rotation"
                    }
                },
                {
                    "sampler" : 2,
                    "target" : {
                        "node" : 1,
                        "path" : "scale"
                    }
                }
            ],
            "name" : "path119.036Action",
            "samplers" : [
                {
                    "input" : 10,
                    "interpolation" : "LINEAR",
                    "output" : 14
                },
                {
                    "input" : 10,
                    "interpolation" : "LINEAR",
                    "output" : 15
                },
                {
                    "input" : 10,
                    "interpolation" : "LINEAR",
                    "output" : 16
                }
            ]
        },
        {
            "channels" : [
                {
                    "sampler" : 0,
                    "target" : {
                        "node" : 2,
                        "path" : "translation"
                    }
                },
                {
                    "sampler" : 1,
                    "target" : {
                        "node" : 2,
                        "path" : "rotation"
                    }
                },
                {
                    "sampler" : 2,
                    "target" : {
                        "node" : 2,
                        "path" : "scale"
                    }
                }
            ],
            "name" : "path119.005Action",
            "samplers" : [
                {
                    "input" : 10,
                    "interpolation" : "LINEAR",
                    "output" : 17
                },
                {
                    "input" : 10,
                    "interpolation" : "LINEAR",
                    "output" : 18
                },
                {
                    "input" : 10,
                    "interpolation" : "LINEAR",
                    "output" : 19
                }
            ]
        }
    ],
    "materials" : [
        {
            "doubleSided" : true,
            "emissiveFactor" : [
                0.36722812056541443,
                0.36722812056541443,
                0.36722812056541443
            ],
            "name" : "SVGMat.003",
            "pbrMetallicRoughness" : {
                "baseColorFactor" : [
                    0.8900054693222046,
                    0.8900054693222046,
                    0.8900054693222046,
                    1
                ],
                "metallicFactor" : 0
            }
        },
        {
            "doubleSided" : true,
            "emissiveFactor" : [
                0.36722812056541443,
                0.36722812056541443,
                0.36722812056541443
            ],
            "name" : "SVGMat.002",
            "pbrMetallicRoughness" : {
                "baseColorFactor" : [
                    0.8900054693222046,
                    0.8900054693222046,
                    0.8900054693222046,
                    1
                ],
                "metallicFactor" : 0
            }
        },
        {
            "doubleSided" : true,
            "emissiveFactor" : [
                0.36722812056541443,
                0.36722812056541443,
                0.36722812056541443
            ],
            "name" : "SVGMat.001",
            "pbrMetallicRoughness" : {
                "baseColorFactor" : [
                    0.8900054693222046,
                    0.8900054693222046,
                    0.8900054693222046,
                    1
                ],
                "metallicFactor" : 0
            }
        }
    ],
    "meshes" : [
        {
            "name" : "path119.024",
            "primitives" : [
                {
                    "attributes" : {
                        "POSITION" : 0,
                        "NORMAL" : 1,
                        "TEXCOORD_0" : 2
                    },
                    "indices" : 3,
                    "material" : 0
                }
            ]
        },
        {
            "name" : "path119.023",
            "primitives" : [
                {
                    "attributes" : {
                        "POSITION" : 4,
                        "NORMAL" : 5,
                        "TEXCOORD_0" : 6
                    },
                    "indices" : 3,
                    "material" : 1
                }
            ]
        },
        {
            "name" : "path119.022",
            "primitives" : [
                {
                    "attributes" : {
                        "POSITION" : 7,
                        "NORMAL" : 8,
                        "TEXCOORD_0" : 9
                    },
                    "indices" : 3,
                    "material" : 2
                }
            ]
        }
    ],
    "accessors" : [
        {
            "bufferView" : 0,
            "componentType" : 5126,
            "count" : 9181,
            "max" : [
                0.06945937871932983,
                0.019999999552965164,
                0.08205519616603851
            ],
            "min" : [
                -0.07213185727596283,
                -0.019999999552965164,
                -0.07991403341293335
            ],
            "type" : "VEC3"
        },
        {
            "bufferView" : 1,
            "componentType" : 5126,
            "count" : 9181,
            "type" : "VEC3"
        },
        {
            "bufferView" : 2,
            "componentType" : 5126,
            "count" : 9181,
            "type" : "VEC2"
        },
        {
            "bufferView" : 3,
            "componentType" : 5123,
            "count" : 16764,
            "type" : "SCALAR"
        },
        {
            "bufferView" : 4,
            "componentType" : 5126,
            "count" : 9181,
            "max" : [
                0.06945937871932983,
                0.019999999552965164,
                0.08205519616603851
            ],
            "min" : [
                -0.07213185727596283,
                -0.019999999552965164,
                -0.07991403341293335
            ],
            "type" : "VEC3"
        },
        {
            "bufferView" : 5,
            "componentType" : 5126,
            "count" : 9181,
            "type" : "VEC3"
        },
        {
            "bufferView" : 6,
            "componentType" : 5126,
            "count" : 9181,
            "type" : "VEC2"
        },
        {
            "bufferView" : 7,
            "componentType" : 5126,
            "count" : 9181,
            "max" : [
                0.06945937871932983,
                0.019999999552965164,
                0.08205519616603851
            ],
            "min" : [
                -0.07213185727596283,
                -0.019999999552965164,
                -0.07991403341293335
            ],
            "type" : "VEC3"
        },
        {
            "bufferView" : 8,
            "componentType" : 5126,
            "count" : 9181,
            "type" : "VEC3"
        },
        {
            "bufferView" : 9,
            "componentType" : 5126,
            "count" : 9181,
            "type" : "VEC2"
        },
        {
            "bufferView" : 10,
            "componentType" : 5126,
            "count" : 161,
            "max" : [
                6.666666666666667
            ],
            "min" : [
                0
            ],
            "type" : "SCALAR"
        },
        {
            "bufferView" : 11,
            "componentType" : 5126,
            "count" : 161,
            "type" : "VEC3"
        },
        {
            "bufferView" : 12,
            "componentType" : 5126,
            "count" : 161,
            "type" : "VEC4"
        },
        {
            "bufferView" : 13,
            "componentType" : 5126,
            "count" : 161,
            "type" : "VEC3"
        },
        {
            "bufferView" : 14,
            "componentType" : 5126,
            "count" : 161,
            "type" : "VEC3"
        },
        {
            "bufferView" : 15,
            "componentType" : 5126,
            "count" : 161,
            "type" : "VEC4"
        },
        {
            "bufferView" : 16,
            "componentType" : 5126,
            "count" : 161,
            "type" : "VEC3"
        },
        {
            "bufferView" : 17,
            "componentType" : 5126,
            "count" : 161,
            "type" : "VEC3"
        },
        {
            "bufferView" : 18,
            "componentType" : 5126,
            "count" : 161,
            "type" : "VEC4"
        },
        {
            "bufferView" : 19,
            "componentType" : 5126,
            "count" : 161,
            "type" : "VEC3"
        }
    ],
    "bufferViews" : [
        {
            "buffer" : 0,
            "byteLength" : 110172,
            "byteOffset" : 0
        },
        {
            "buffer" : 0,
            "byteLength" : 110172,
            "byteOffset" : 110172
        },
        {
            "buffer" : 0,
            "byteLength" : 73448,
            "byteOffset" : 220344
        },
        {
            "buffer" : 0,
            "byteLength" : 33528,
            "byteOffset" : 293792
        },
        {
            "buffer" : 0,
            "byteLength" : 110172,
            "byteOffset" : 327320
        },
        {
            "buffer" : 0,
            "byteLength" : 110172,
            "byteOffset" : 437492
        },
        {
            "buffer" : 0,
            "byteLength" : 73448,
            "byteOffset" : 547664
        },
        {
            "buffer" : 0,
            "byteLength" : 110172,
            "byteOffset" : 621112
        },
        {
            "buffer" : 0,
            "byteLength" : 110172,
            "byteOffset" : 731284
        },
        {
            "buffer" : 0,
            "byteLength" : 73448,
            "byteOffset" : 841456
        },
        {
            "buffer" : 0,
            "byteLength" : 644,
            "byteOffset" : 914904
        },
        {
            "buffer" : 0,
            "byteLength" : 1932,
            "byteOffset" : 915548
        },
        {
            "buffer" : 0,
            "byteLength" : 2576,
            "byteOffset" : 917480
        },
        {
            "buffer" : 0,
            "byteLength" : 1932,
            "byteOffset" : 920056
        },
        {
            "buffer" : 0,
            "byteLength" : 1932,
            "byteOffset" : 921988
        },
        {
            "buffer" : 0,
            "byteLength" : 2576,
            "byteOffset" : 923920
        },
        {
            "buffer" : 0,
            "byteLength" : 1932,
            "byteOffset" : 926496
        },
        {
            "buffer" : 0,
            "byteLength" : 1932,
            "byteOffset" : 928428
        },
        {
            "buffer" : 0,
            "byteLength" : 2576,
            "byteOffset" : 930360
        },
        {
            "buffer" : 0,
            "byteLength" : 1932,
            "byteOffset" : 932936
        }
    ],
    "buffers" : [
        {
            "byteLength" : 934868,
            "uri" : "data:application/octet-stream;base64,"
        }
    ]
}
