{
    "asset" : {
        "generator" : "Khronos glTF Blender I/O v1.6.16",
        "version" : "2.0"
    },
    "scene" : 0,
    "scenes" : [
        {
            "extras" : {
                "glTF2ExportSettings" : {
                    "export_extras" : 1,
                    "export_format" : "GLTF_EMBEDDED",
                    "use_selection" : 1
                }
            },
            "name" : "Scene",
            "nodes" : [
                0
            ]
        }
    ],
    "nodes" : [
        {
            "mesh" : 0,
            "name" : "path119.001",
            "rotation" : [
                0.6165587306022644,
                0.35280588269233704,
                -0.3463541269302368,
                0.6127170324325562
            ],
            "scale" : [
                11.898544311523438,
                11.898543357849121,
                11.898544311523438
            ]
        }
    ],
    "animations" : [
        {
            "channels" : [
                {
                    "sampler" : 0,
                    "target" : {
                        "node" : 0,
                        "path" : "translation"
                    }
                },
                {
                    "sampler" : 1,
                    "target" : {
                        "node" : 0,
                        "path" : "rotation"
                    }
                },
                {
                    "sampler" : 2,
                    "target" : {
                        "node" : 0,
                        "path" : "scale"
                    }
                }
            ],
            "name" : "path119.001Action",
            "samplers" : [
                {
                    "input" : 4,
                    "interpolation" : "LINEAR",
                    "output" : 5
                },
                {
                    "input" : 4,
                    "interpolation" : "LINEAR",
                    "output" : 6
                },
                {
                    "input" : 4,
                    "interpolation" : "LINEAR",
                    "output" : 7
                }
            ]
        }
    ],
    "materials" : [
        {
            "alphaMode" : "BLEND",
            "emissiveFactor" : [
                0.09757087682373822,
                0,
                1
            ],
            "name" : "Material.015",
            "pbrMetallicRoughness" : {
                "metallicFactor" : 0,
                "roughnessFactor" : 0.5090909004211426
            }
        }
    ],
    "meshes" : [
        {
            "name" : "path119.003",
            "primitives" : [
                {
                    "attributes" : {
                        "POSITION" : 0,
                        "NORMAL" : 1,
                        "TEXCOORD_0" : 2
                    },
                    "indices" : 3,
                    "material" : 0
                }
            ]
        }
    ],
    "accessors" : [
        {
            "bufferView" : 0,
            "componentType" : 5126,
            "count" : 1907,
            "max" : [
                0.15793557465076447,
                0.12361755967140198,
                0.19437427818775177
            ],
            "min" : [
                -0.1671524941921234,
                -0.13638243079185486,
                -0.17403224110603333
            ],
            "type" : "VEC3"
        },
        {
            "bufferView" : 1,
            "componentType" : 5126,
            "count" : 1907,
            "type" : "VEC3"
        },
        {
            "bufferView" : 2,
            "componentType" : 5126,
            "count" : 1907,
            "type" : "VEC2"
        },
        {
            "bufferView" : 3,
            "componentType" : 5123,
            "count" : 3780,
            "type" : "SCALAR"
        },
        {
            "bufferView" : 4,
            "componentType" : 5126,
            "count" : 81,
            "max" : [
                3.3333333333333335
            ],
            "min" : [
                0
            ],
            "type" : "SCALAR"
        },
        {
            "bufferView" : 5,
            "componentType" : 5126,
            "count" : 81,
            "type" : "VEC3"
        },
        {
            "bufferView" : 6,
            "componentType" : 5126,
            "count" : 81,
            "type" : "VEC4"
        },
        {
            "bufferView" : 7,
            "componentType" : 5126,
            "count" : 81,
            "type" : "VEC3"
        }
    ],
    "bufferViews" : [
        {
            "buffer" : 0,
            "byteLength" : 22884,
            "byteOffset" : 0
        },
        {
            "buffer" : 0,
            "byteLength" : 22884,
            "byteOffset" : 22884
        },
        {
            "buffer" : 0,
            "byteLength" : 15256,
            "byteOffset" : 45768
        },
        {
            "buffer" : 0,
            "byteLength" : 7560,
            "byteOffset" : 61024
        },
        {
            "buffer" : 0,
            "byteLength" : 324,
            "byteOffset" : 68584
        },
        {
            "buffer" : 0,
            "byteLength" : 972,
            "byteOffset" : 68908
        },
        {
            "buffer" : 0,
            "byteLength" : 1296,
            "byteOffset" : 69880
        },
        {
            "buffer" : 0,
            "byteLength" : 972,
            "byteOffset" : 71176
        }
    ],
    "buffers" : [
        {
            "byteLength" : 72148,
            "uri" : "data:application/octet-stream;base64,"
        }
    ]
}
