{
    "asset" : {
        "generator" : "Khronos glTF Blender I/O v1.6.16",
        "version" : "2.0"
    },
    "scene" : 0,
    "scenes" : [
        {
            "extras" : {
                "glTF2ExportSettings" : {
                    "export_extras" : 1,
                    "export_format" : "GLTF_EMBEDDED",
                    "use_selection" : 1
                }
            },
            "name" : "Scene",
            "nodes" : [
                0,
                1,
                2
            ]
        }
    ],
    "nodes" : [
        {
            "mesh" : 0,
            "name" : "path129.017",
            "rotation" : [
                0.5428412556648254,
                0.4528159201145172,
                -0.4514214098453522,
                0.5445181727409363
            ],
            "scale" : [
                7.639532566070557,
                7.63953161239624,
                7.639530181884766
            ],
            "translation" : [
                8.358233451843262,
                -2.018369674682617,
                1.7139626741409302
            ]
        },
        {
            "mesh" : 1,
            "name" : "path129.010",
            "rotation" : [
                0.5428412556648254,
                0.4528159201145172,
                -0.4514214098453522,
                0.5445181727409363
            ],
            "scale" : [
                4.755857467651367,
                4.755856513977051,
                4.755856037139893
            ],
            "translation" : [
                7.475284576416016,
                -1.8870849609375,
                3.7324562072753906
            ]
        },
        {
            "mesh" : 2,
            "name" : "path129.009",
            "rotation" : [
                0.5428412556648254,
                0.4528159201145172,
                -0.4514214098453522,
                0.5445181727409363
            ],
            "scale" : [
                6.158357620239258,
                6.158356666564941,
                6.158356666564941
            ],
            "translation" : [
                8.299982070922852,
                -1.8870849609375,
                -0.4522360563278198
            ]
        }
    ],
    "materials" : [
        {
            "alphaMode" : "BLEND",
            "emissiveFactor" : [
                1,
                1,
                0
            ],
            "name" : "Material.019",
            "pbrMetallicRoughness" : {
                "metallicFactor" : 0
            }
        },
        {
            "alphaMode" : "BLEND",
            "emissiveFactor" : [
                1,
                1,
                0
            ],
            "name" : "Material.018",
            "pbrMetallicRoughness" : {
                "metallicFactor" : 0
            }
        },
        {
            "alphaMode" : "BLEND",
            "emissiveFactor" : [
                1,
                1,
                0
            ],
            "name" : "Material.017",
            "pbrMetallicRoughness" : {
                "metallicFactor" : 0
            }
        }
    ],
    "meshes" : [
        {
            "name" : "path129.014",
            "primitives" : [
                {
                    "attributes" : {
                        "POSITION" : 0,
                        "NORMAL" : 1,
                        "TEXCOORD_0" : 2
                    },
                    "indices" : 3,
                    "material" : 0
                }
            ]
        },
        {
            "name" : "path129.010",
            "primitives" : [
                {
                    "attributes" : {
                        "POSITION" : 4,
                        "NORMAL" : 5,
                        "TEXCOORD_0" : 6
                    },
                    "indices" : 3,
                    "material" : 1
                }
            ]
        },
        {
            "name" : "path129.009",
            "primitives" : [
                {
                    "attributes" : {
                        "POSITION" : 7,
                        "NORMAL" : 8,
                        "TEXCOORD_0" : 9
                    },
                    "indices" : 3,
                    "material" : 2
                }
            ]
        }
    ],
    "accessors" : [
        {
            "bufferView" : 0,
            "componentType" : 5126,
            "count" : 2044,
            "max" : [
                0.14525680243968964,
                0.10000000149011612,
                0.18613234162330627
            ],
            "min" : [
                -0.12120293080806732,
                -0.10000000149011612,
                -0.17826363444328308
            ],
            "type" : "VEC3"
        },
        {
            "bufferView" : 1,
            "componentType" : 5126,
            "count" : 2044,
            "type" : "VEC3"
        },
        {
            "bufferView" : 2,
            "componentType" : 5126,
            "count" : 2044,
            "type" : "VEC2"
        },
        {
            "bufferView" : 3,
            "componentType" : 5123,
            "count" : 3756,
            "type" : "SCALAR"
        },
        {
            "bufferView" : 4,
            "componentType" : 5126,
            "count" : 2044,
            "max" : [
                0.14525680243968964,
                0.10000000149011612,
                0.18613234162330627
            ],
            "min" : [
                -0.12120293080806732,
                -0.10000000149011612,
                -0.17826363444328308
            ],
            "type" : "VEC3"
        },
        {
            "bufferView" : 5,
            "componentType" : 5126,
            "count" : 2044,
            "type" : "VEC3"
        },
        {
            "bufferView" : 6,
            "componentType" : 5126,
            "count" : 2044,
            "type" : "VEC2"
        },
        {
            "bufferView" : 7,
            "componentType" : 5126,
            "count" : 2044,
            "max" : [
                0.14525680243968964,
                0.10000000149011612,
                0.18613234162330627
            ],
            "min" : [
                -0.12120293080806732,
                -0.10000000149011612,
                -0.17826363444328308
            ],
            "type" : "VEC3"
        },
        {
            "bufferView" : 8,
            "componentType" : 5126,
            "count" : 2044,
            "type" : "VEC3"
        },
        {
            "bufferView" : 9,
            "componentType" : 5126,
            "count" : 2044,
            "type" : "VEC2"
        }
    ],
    "bufferViews" : [
        {
            "buffer" : 0,
            "byteLength" : 24528,
            "byteOffset" : 0
        },
        {
            "buffer" : 0,
            "byteLength" : 24528,
            "byteOffset" : 24528
        },
        {
            "buffer" : 0,
            "byteLength" : 16352,
            "byteOffset" : 49056
        },
        {
            "buffer" : 0,
            "byteLength" : 7512,
            "byteOffset" : 65408
        },
        {
            "buffer" : 0,
            "byteLength" : 24528,
            "byteOffset" : 72920
        },
        {
            "buffer" : 0,
            "byteLength" : 24528,
            "byteOffset" : 97448
        },
        {
            "buffer" : 0,
            "byteLength" : 16352,
            "byteOffset" : 121976
        },
        {
            "buffer" : 0,
            "byteLength" : 24528,
            "byteOffset" : 138328
        },
        {
            "buffer" : 0,
            "byteLength" : 24528,
            "byteOffset" : 162856
        },
        {
            "buffer" : 0,
            "byteLength" : 16352,
            "byteOffset" : 187384
        }
    ],
    "buffers" : [
        {
            "byteLength" : 203736,
            "uri" : "data:application/octet-stream;base64,"
        }
    ]
}
