{
    "asset" : {
        "generator" : "Khronos glTF Blender I/O v1.6.16",
        "version" : "2.0"
    },
    "scene" : 0,
    "scenes" : [
        {
            "extras" : {
                "glTF2ExportSettings" : {
                    "export_extras" : 1,
                    "export_format" : "GLTF_EMBEDDED",
                    "use_selection" : 1
                }
            },
            "name" : "Scene",
            "nodes" : [
                0,
                1,
                2
            ]
        }
    ],
    "nodes" : [
        {
            "mesh" : 0,
            "name" : "Sphere.026",
            "scale" : [
                1.0644956827163696,
                1.0644956827163696,
                1.0644956827163696
            ],
            "translation" : [
                6.074014663696289,
                -0.7475666999816895,
                2.0774803161621094
            ]
        },
        {
            "mesh" : 1,
            "name" : "Sphere.025",
            "scale" : [
                1.6842801570892334,
                1.6842801570892334,
                1.6842801570892334
            ],
            "translation" : [
                4.191145896911621,
                -0.7475666999816895,
                3.0419578552246094
            ]
        },
        {
            "mesh" : 2,
            "name" : "Sphere.024",
            "scale" : [
                2.674165964126587,
                2.674165964126587,
                2.674165964126587
            ],
            "translation" : [
                4.191145896911621,
                -0.7475666999816895,
                -0.4105644226074219
            ]
        }
    ],
    "animations" : [
        {
            "channels" : [
                {
                    "sampler" : 0,
                    "target" : {
                        "node" : 0,
                        "path" : "translation"
                    }
                },
                {
                    "sampler" : 1,
                    "target" : {
                        "node" : 0,
                        "path" : "scale"
                    }
                },
                {
                    "sampler" : 2,
                    "target" : {
                        "node" : 0,
                        "path" : "rotation"
                    }
                }
            ],
            "name" : "Sphere.026Action",
            "samplers" : [
                {
                    "input" : 12,
                    "interpolation" : "LINEAR",
                    "output" : 13
                },
                {
                    "input" : 12,
                    "interpolation" : "LINEAR",
                    "output" : 14
                },
                {
                    "input" : 12,
                    "interpolation" : "LINEAR",
                    "output" : 15
                }
            ]
        },
        {
            "channels" : [
                {
                    "sampler" : 0,
                    "target" : {
                        "node" : 1,
                        "path" : "translation"
                    }
                },
                {
                    "sampler" : 1,
                    "target" : {
                        "node" : 1,
                        "path" : "scale"
                    }
                },
                {
                    "sampler" : 2,
                    "target" : {
                        "node" : 1,
                        "path" : "rotation"
                    }
                }
            ],
            "name" : "Sphere.025Action",
            "samplers" : [
                {
                    "input" : 12,
                    "interpolation" : "LINEAR",
                    "output" : 16
                },
                {
                    "input" : 12,
                    "interpolation" : "LINEAR",
                    "output" : 17
                },
                {
                    "input" : 12,
                    "interpolation" : "LINEAR",
                    "output" : 18
                }
            ]
        },
        {
            "channels" : [
                {
                    "sampler" : 0,
                    "target" : {
                        "node" : 2,
                        "path" : "translation"
                    }
                },
                {
                    "sampler" : 1,
                    "target" : {
                        "node" : 2,
                        "path" : "scale"
                    }
                },
                {
                    "sampler" : 2,
                    "target" : {
                        "node" : 2,
                        "path" : "rotation"
                    }
                }
            ],
            "name" : "Sphere.024Action",
            "samplers" : [
                {
                    "input" : 12,
                    "interpolation" : "LINEAR",
                    "output" : 19
                },
                {
                    "input" : 12,
                    "interpolation" : "LINEAR",
                    "output" : 20
                },
                {
                    "input" : 12,
                    "interpolation" : "LINEAR",
                    "output" : 21
                }
            ]
        }
    ],
    "materials" : [
        {
            "alphaMode" : "BLEND",
            "emissiveFactor" : [
                0.6787121295928955,
                0.612957239151001,
                0.7009842991828918
            ],
            "name" : "Material.001",
            "pbrMetallicRoughness" : {
                "metallicFactor" : 0
            }
        }
    ],
    "meshes" : [
        {
            "name" : "Sphere.016",
            "primitives" : [
                {
                    "attributes" : {
                        "POSITION" : 0,
                        "NORMAL" : 1,
                        "TEXCOORD_0" : 2
                    },
                    "indices" : 3,
                    "material" : 0
                }
            ]
        },
        {
            "name" : "Sphere.015",
            "primitives" : [
                {
                    "attributes" : {
                        "POSITION" : 4,
                        "NORMAL" : 5,
                        "TEXCOORD_0" : 6
                    },
                    "indices" : 7,
                    "material" : 0
                }
            ]
        },
        {
            "name" : "Sphere.014",
            "primitives" : [
                {
                    "attributes" : {
                        "POSITION" : 8,
                        "NORMAL" : 9,
                        "TEXCOORD_0" : 10
                    },
                    "indices" : 11,
                    "material" : 0
                }
            ]
        }
    ],
    "accessors" : [
        {
            "bufferView" : 0,
            "componentType" : 5126,
            "count" : 1722,
            "max" : [
                0.9999997019767761,
                1,
                0.9999994039535522
            ],
            "min" : [
                -0.9999990463256836,
                -0.7083321213722229,
                -0.9999987483024597
            ],
            "type" : "VEC3"
        },
        {
            "bufferView" : 1,
            "componentType" : 5126,
            "count" : 1722,
            "type" : "VEC3"
        },
        {
            "bufferView" : 2,
            "componentType" : 5126,
            "count" : 1722,
            "type" : "VEC2"
        },
        {
            "bufferView" : 3,
            "componentType" : 5123,
            "count" : 9786,
            "type" : "SCALAR"
        },
        {
            "bufferView" : 4,
            "componentType" : 5126,
            "count" : 1462,
            "max" : [
                0.9999997019767761,
                1,
                0.9999994039535522
            ],
            "min" : [
                -0.9999990463256836,
                -0.44767892360687256,
                -0.9999987483024597
            ],
            "type" : "VEC3"
        },
        {
            "bufferView" : 5,
            "componentType" : 5126,
            "count" : 1462,
            "type" : "VEC3"
        },
        {
            "bufferView" : 6,
            "componentType" : 5126,
            "count" : 1462,
            "type" : "VEC2"
        },
        {
            "bufferView" : 7,
            "componentType" : 5123,
            "count" : 8250,
            "type" : "SCALAR"
        },
        {
            "bufferView" : 8,
            "componentType" : 5126,
            "count" : 1332,
            "max" : [
                0.9951960444450378,
                0.9951963424682617,
                0.995195746421814
            ],
            "min" : [
                -0.9951954483985901,
                -0.2747238278388977,
                -0.9951952695846558
            ],
            "type" : "VEC3"
        },
        {
            "bufferView" : 9,
            "componentType" : 5126,
            "count" : 1332,
            "type" : "VEC3"
        },
        {
            "bufferView" : 10,
            "componentType" : 5126,
            "count" : 1332,
            "type" : "VEC2"
        },
        {
            "bufferView" : 11,
            "componentType" : 5123,
            "count" : 7482,
            "type" : "SCALAR"
        },
        {
            "bufferView" : 12,
            "componentType" : 5126,
            "count" : 81,
            "max" : [
                3.3333333333333335
            ],
            "min" : [
                0
            ],
            "type" : "SCALAR"
        },
        {
            "bufferView" : 13,
            "componentType" : 5126,
            "count" : 81,
            "type" : "VEC3"
        },
        {
            "bufferView" : 14,
            "componentType" : 5126,
            "count" : 81,
            "type" : "VEC3"
        },
        {
            "bufferView" : 15,
            "componentType" : 5126,
            "count" : 81,
            "type" : "VEC4"
        },
        {
            "bufferView" : 16,
            "componentType" : 5126,
            "count" : 81,
            "type" : "VEC3"
        },
        {
            "bufferView" : 17,
            "componentType" : 5126,
            "count" : 81,
            "type" : "VEC3"
        },
        {
            "bufferView" : 18,
            "componentType" : 5126,
            "count" : 81,
            "type" : "VEC4"
        },
        {
            "bufferView" : 19,
            "componentType" : 5126,
            "count" : 81,
            "type" : "VEC3"
        },
        {
            "bufferView" : 20,
            "componentType" : 5126,
            "count" : 81,
            "type" : "VEC3"
        },
        {
            "bufferView" : 21,
            "componentType" : 5126,
            "count" : 81,
            "type" : "VEC4"
        }
    ],
    "bufferViews" : [
        {
            "buffer" : 0,
            "byteLength" : 20664,
            "byteOffset" : 0
        },
        {
            "buffer" : 0,
            "byteLength" : 20664,
            "byteOffset" : 20664
        },
        {
            "buffer" : 0,
            "byteLength" : 13776,
            "byteOffset" : 41328
        },
        {
            "buffer" : 0,
            "byteLength" : 19572,
            "byteOffset" : 55104
        },
        {
            "buffer" : 0,
            "byteLength" : 17544,
            "byteOffset" : 74676
        },
        {
            "buffer" : 0,
            "byteLength" : 17544,
            "byteOffset" : 92220
        },
        {
            "buffer" : 0,
            "byteLength" : 11696,
            "byteOffset" : 109764
        },
        {
            "buffer" : 0,
            "byteLength" : 16500,
            "byteOffset" : 121460
        },
        {
            "buffer" : 0,
            "byteLength" : 15984,
            "byteOffset" : 137960
        },
        {
            "buffer" : 0,
            "byteLength" : 15984,
            "byteOffset" : 153944
        },
        {
            "buffer" : 0,
            "byteLength" : 10656,
            "byteOffset" : 169928
        },
        {
            "buffer" : 0,
            "byteLength" : 14964,
            "byteOffset" : 180584
        },
        {
            "buffer" : 0,
            "byteLength" : 324,
            "byteOffset" : 195548
        },
        {
            "buffer" : 0,
            "byteLength" : 972,
            "byteOffset" : 195872
        },
        {
            "buffer" : 0,
            "byteLength" : 972,
            "byteOffset" : 196844
        },
        {
            "buffer" : 0,
            "byteLength" : 1296,
            "byteOffset" : 197816
        },
        {
            "buffer" : 0,
            "byteLength" : 972,
            "byteOffset" : 199112
        },
        {
            "buffer" : 0,
            "byteLength" : 972,
            "byteOffset" : 200084
        },
        {
            "buffer" : 0,
            "byteLength" : 1296,
            "byteOffset" : 201056
        },
        {
            "buffer" : 0,
            "byteLength" : 972,
            "byteOffset" : 202352
        },
        {
            "buffer" : 0,
            "byteLength" : 972,
            "byteOffset" : 203324
        },
        {
            "buffer" : 0,
            "byteLength" : 1296,
            "byteOffset" : 204296
        }
    ],
    "buffers" : [
        {
            "byteLength" : 205592,
            "uri" : "data:application/octet-stream;base64,"
        }
    ]
}
