{
    "asset" : {
        "generator" : "Khronos glTF Blender I/O v1.6.16",
        "version" : "2.0"
    },
    "scene" : 0,
    "scenes" : [
        {
            "extras" : {
                "glTF2ExportSettings" : {
                    "export_extras" : 1,
                    "export_format" : "GLTF_EMBEDDED",
                    "use_selection" : 1
                }
            },
            "name" : "Scene",
            "nodes" : [
                0,
                1,
                2
            ]
        }
    ],
    "nodes" : [
        {
            "mesh" : 0,
            "name" : "Cylinder.1022",
            "rotation" : [
                -0.10144633054733276,
                0,
                0,
                0.9948410391807556
            ],
            "scale" : [
                0.26016029715538025,
                0.26016029715538025,
                0.26016029715538025
            ],
            "translation" : [
                5.599461555480957,
                -3.379149913787842,
                1.974947452545166
            ]
        },
        {
            "mesh" : 1,
            "name" : "Cylinder.1021",
            "rotation" : [
                -0.10144633054733276,
                0,
                0,
                0.9948410391807556
            ],
            "scale" : [
                0.26016029715538025,
                0.26016029715538025,
                0.26016029715538025
            ],
            "translation" : [
                5.538330078125,
                -4.503779411315918,
                -0.20554502308368683
            ]
        },
        {
            "mesh" : 2,
            "name" : "Cylinder.1019",
            "rotation" : [
                -0.10144633054733276,
                0,
                0,
                0.9948410391807556
            ],
            "scale" : [
                0.26016029715538025,
                0.26016029715538025,
                0.26016029715538025
            ],
            "translation" : [
                5.603908538818359,
                -4.379425525665283,
                2.1856331825256348
            ]
        }
    ],
    "animations" : [
        {
            "channels" : [
                {
                    "sampler" : 0,
                    "target" : {
                        "node" : 0,
                        "path" : "translation"
                    }
                },
                {
                    "sampler" : 1,
                    "target" : {
                        "node" : 0,
                        "path" : "rotation"
                    }
                },
                {
                    "sampler" : 2,
                    "target" : {
                        "node" : 0,
                        "path" : "scale"
                    }
                }
            ],
            "name" : "Cylinder.1022Action.001",
            "samplers" : [
                {
                    "input" : 12,
                    "interpolation" : "LINEAR",
                    "output" : 13
                },
                {
                    "input" : 12,
                    "interpolation" : "LINEAR",
                    "output" : 14
                },
                {
                    "input" : 12,
                    "interpolation" : "LINEAR",
                    "output" : 15
                }
            ]
        },
        {
            "channels" : [
                {
                    "sampler" : 0,
                    "target" : {
                        "node" : 1,
                        "path" : "translation"
                    }
                },
                {
                    "sampler" : 1,
                    "target" : {
                        "node" : 1,
                        "path" : "rotation"
                    }
                },
                {
                    "sampler" : 2,
                    "target" : {
                        "node" : 1,
                        "path" : "scale"
                    }
                }
            ],
            "name" : "Cylinder.1021Action",
            "samplers" : [
                {
                    "input" : 12,
                    "interpolation" : "LINEAR",
                    "output" : 16
                },
                {
                    "input" : 12,
                    "interpolation" : "LINEAR",
                    "output" : 17
                },
                {
                    "input" : 12,
                    "interpolation" : "LINEAR",
                    "output" : 18
                }
            ]
        },
        {
            "channels" : [
                {
                    "sampler" : 0,
                    "target" : {
                        "node" : 2,
                        "path" : "translation"
                    }
                },
                {
                    "sampler" : 1,
                    "target" : {
                        "node" : 2,
                        "path" : "rotation"
                    }
                },
                {
                    "sampler" : 2,
                    "target" : {
                        "node" : 2,
                        "path" : "scale"
                    }
                }
            ],
            "name" : "Cylinder.1020Action.001",
            "samplers" : [
                {
                    "input" : 12,
                    "interpolation" : "LINEAR",
                    "output" : 19
                },
                {
                    "input" : 12,
                    "interpolation" : "LINEAR",
                    "output" : 20
                },
                {
                    "input" : 12,
                    "interpolation" : "LINEAR",
                    "output" : 21
                }
            ]
        }
    ],
    "materials" : [
        {
            "alphaMode" : "BLEND",
            "emissiveFactor" : [
                0.025777099654078484,
                0.26024702191352844,
                0.5564903020858765
            ],
            "name" : "Material.021",
            "pbrMetallicRoughness" : {
                "baseColorFactor" : [
                    0,
                    0.1078045666217804,
                    0.8266010880470276,
                    0.9772727489471436
                ],
                "metallicFactor" : 0,
                "roughnessFactor" : 0.5
            }
        }
    ],
    "meshes" : [
        {
            "name" : "Cylinder.153",
            "primitives" : [
                {
                    "attributes" : {
                        "POSITION" : 0,
                        "NORMAL" : 1,
                        "TEXCOORD_0" : 2
                    },
                    "indices" : 3,
                    "material" : 0
                }
            ]
        },
        {
            "name" : "Cylinder.166",
            "primitives" : [
                {
                    "attributes" : {
                        "POSITION" : 4,
                        "NORMAL" : 5,
                        "TEXCOORD_0" : 6
                    },
                    "indices" : 7,
                    "material" : 0
                }
            ]
        },
        {
            "name" : "Cylinder.076",
            "primitives" : [
                {
                    "attributes" : {
                        "POSITION" : 8,
                        "NORMAL" : 9,
                        "TEXCOORD_0" : 10
                    },
                    "indices" : 11,
                    "material" : 0
                }
            ]
        }
    ],
    "accessors" : [
        {
            "bufferView" : 0,
            "componentType" : 5126,
            "count" : 12672,
            "max" : [
                0.9951963424682617,
                6.901348114013672,
                0.9951963424682617
            ],
            "min" : [
                -0.9951963424682617,
                -0.9988672733306885,
                -6.995220184326172
            ],
            "type" : "VEC3"
        },
        {
            "bufferView" : 1,
            "componentType" : 5126,
            "count" : 12672,
            "type" : "VEC3"
        },
        {
            "bufferView" : 2,
            "componentType" : 5126,
            "count" : 12672,
            "type" : "VEC2"
        },
        {
            "bufferView" : 3,
            "componentType" : 5123,
            "count" : 19512,
            "type" : "SCALAR"
        },
        {
            "bufferView" : 4,
            "componentType" : 5126,
            "count" : 6336,
            "max" : [
                0.9951963424682617,
                9.901360511779785,
                0.9951963424682617
            ],
            "min" : [
                -0.9951963424682617,
                -0.9988672733306885,
                -0.9952332377433777
            ],
            "type" : "VEC3"
        },
        {
            "bufferView" : 5,
            "componentType" : 5126,
            "count" : 6336,
            "type" : "VEC3"
        },
        {
            "bufferView" : 6,
            "componentType" : 5126,
            "count" : 6336,
            "type" : "VEC2"
        },
        {
            "bufferView" : 7,
            "componentType" : 5123,
            "count" : 9756,
            "type" : "SCALAR"
        },
        {
            "bufferView" : 8,
            "componentType" : 5126,
            "count" : 6336,
            "max" : [
                0.9951963424682617,
                2.987138271331787,
                0.9951963424682617
            ],
            "min" : [
                -0.9951963424682617,
                -0.9988672733306885,
                -6.995221138000488
            ],
            "type" : "VEC3"
        },
        {
            "bufferView" : 9,
            "componentType" : 5126,
            "count" : 6336,
            "type" : "VEC3"
        },
        {
            "bufferView" : 10,
            "componentType" : 5126,
            "count" : 6336,
            "type" : "VEC2"
        },
        {
            "bufferView" : 11,
            "componentType" : 5123,
            "count" : 9756,
            "type" : "SCALAR"
        },
        {
            "bufferView" : 12,
            "componentType" : 5126,
            "count" : 81,
            "max" : [
                3.3333333333333335
            ],
            "min" : [
                0
            ],
            "type" : "SCALAR"
        },
        {
            "bufferView" : 13,
            "componentType" : 5126,
            "count" : 81,
            "type" : "VEC3"
        },
        {
            "bufferView" : 14,
            "componentType" : 5126,
            "count" : 81,
            "type" : "VEC4"
        },
        {
            "bufferView" : 15,
            "componentType" : 5126,
            "count" : 81,
            "type" : "VEC3"
        },
        {
            "bufferView" : 16,
            "componentType" : 5126,
            "count" : 81,
            "type" : "VEC3"
        },
        {
            "bufferView" : 17,
            "componentType" : 5126,
            "count" : 81,
            "type" : "VEC4"
        },
        {
            "bufferView" : 18,
            "componentType" : 5126,
            "count" : 81,
            "type" : "VEC3"
        },
        {
            "bufferView" : 19,
            "componentType" : 5126,
            "count" : 81,
            "type" : "VEC3"
        },
        {
            "bufferView" : 20,
            "componentType" : 5126,
            "count" : 81,
            "type" : "VEC4"
        },
        {
            "bufferView" : 21,
            "componentType" : 5126,
            "count" : 81,
            "type" : "VEC3"
        }
    ],
    "bufferViews" : [
        {
            "buffer" : 0,
            "byteLength" : 152064,
            "byteOffset" : 0
        },
        {
            "buffer" : 0,
            "byteLength" : 152064,
            "byteOffset" : 152064
        },
        {
            "buffer" : 0,
            "byteLength" : 101376,
            "byteOffset" : 304128
        },
        {
            "buffer" : 0,
            "byteLength" : 39024,
            "byteOffset" : 405504
        },
        {
            "buffer" : 0,
            "byteLength" : 76032,
            "byteOffset" : 444528
        },
        {
            "buffer" : 0,
            "byteLength" : 76032,
            "byteOffset" : 520560
        },
        {
            "buffer" : 0,
            "byteLength" : 50688,
            "byteOffset" : 596592
        },
        {
            "buffer" : 0,
            "byteLength" : 19512,
            "byteOffset" : 647280
        },
        {
            "buffer" : 0,
            "byteLength" : 76032,
            "byteOffset" : 666792
        },
        {
            "buffer" : 0,
            "byteLength" : 76032,
            "byteOffset" : 742824
        },
        {
            "buffer" : 0,
            "byteLength" : 50688,
            "byteOffset" : 818856
        },
        {
            "buffer" : 0,
            "byteLength" : 19512,
            "byteOffset" : 869544
        },
        {
            "buffer" : 0,
            "byteLength" : 324,
            "byteOffset" : 889056
        },
        {
            "buffer" : 0,
            "byteLength" : 972,
            "byteOffset" : 889380
        },
        {
            "buffer" : 0,
            "byteLength" : 1296,
            "byteOffset" : 890352
        },
        {
            "buffer" : 0,
            "byteLength" : 972,
            "byteOffset" : 891648
        },
        {
            "buffer" : 0,
            "byteLength" : 972,
            "byteOffset" : 892620
        },
        {
            "buffer" : 0,
            "byteLength" : 1296,
            "byteOffset" : 893592
        },
        {
            "buffer" : 0,
            "byteLength" : 972,
            "byteOffset" : 894888
        },
        {
            "buffer" : 0,
            "byteLength" : 972,
            "byteOffset" : 895860
        },
        {
            "buffer" : 0,
            "byteLength" : 1296,
            "byteOffset" : 896832
        },
        {
            "buffer" : 0,
            "byteLength" : 972,
            "byteOffset" : 898128
        }
    ],
    "buffers" : [
        {
            "byteLength" : 899100,
            "uri" : "data:application/octet-stream;base64,"
        }
    ]
}
