{
    "asset" : {
        "generator" : "Khronos glTF Blender I/O v1.6.16",
        "version" : "2.0"
    },
    "scene" : 0,
    "scenes" : [
        {
            "extras" : {
                "glTF2ExportSettings" : {
                    "export_extras" : 1,
                    "export_format" : "GLTF_EMBEDDED",
                    "use_selection" : 1
                }
            },
            "name" : "Scene",
            "nodes" : [
                0,
                1,
                2,
                3,
                4
            ]
        }
    ],
    "nodes" : [
        {
            "mesh" : 0,
            "name" : "Cylinder",
            "rotation" : [
                0.04576841741800308,
                0,
                0,
                0.9989520907402039
            ],
            "scale" : [
                1.2727149724960327,
                1.2727149724960327,
                1.2727149724960327
            ],
            "translation" : [
                0.03199341893196106,
                1.6152448654174805,
                0.1853618621826172
            ]
        },
        {
            "mesh" : 1,
            "name" : "Cylinder.1014",
            "rotation" : [
                -0.03370656445622444,
                0,
                0,
                0.9994317889213562
            ],
            "scale" : [
                1.0969334840774536,
                1.096933364868164,
                1.096933364868164
            ],
            "translation" : [
                0.03199341893196106,
                0.13314342498779297,
                -0.3135852813720703
            ]
        },
        {
            "mesh" : 2,
            "name" : "Cylinder.1015",
            "rotation" : [
                -0.042498137801885605,
                0,
                0,
                0.9990965723991394
            ],
            "scale" : [
                0.5546943545341492,
                0.554694414138794,
                0.554694414138794
            ],
            "translation" : [
                0.03199341893196106,
                -1.9807939529418945,
                -0.2634296417236328
            ]
        },
        {
            "mesh" : 3,
            "name" : "Cylinder.1016",
            "rotation" : [
                0.013372709043323994,
                0,
                0,
                0.9999105930328369
            ],
            "scale" : [
                0.3126130998134613,
                0.3126130998134613,
                0.3126130998134613
            ],
            "translation" : [
                0.03199341893196106,
                -2.7059831619262695,
                0.1853618621826172
            ]
        },
        {
            "mesh" : 4,
            "name" : "Cylinder.1017",
            "rotation" : [
                0.03367771580815315,
                0,
                0,
                0.9994327425956726
            ],
            "scale" : [
                0.8687558770179749,
                0.8687558770179749,
                0.8687558770179749
            ],
            "translation" : [
                0.03199341893196106,
                -1.0440187454223633,
                0.1853618621826172
            ]
        }
    ],
    "animations" : [
        {
            "channels" : [
                {
                    "sampler" : 0,
                    "target" : {
                        "node" : 0,
                        "path" : "translation"
                    }
                },
                {
                    "sampler" : 1,
                    "target" : {
                        "node" : 0,
                        "path" : "rotation"
                    }
                },
                {
                    "sampler" : 2,
                    "target" : {
                        "node" : 0,
                        "path" : "scale"
                    }
                }
            ],
            "name" : "CylinderAction",
            "samplers" : [
                {
                    "input" : 16,
                    "interpolation" : "LINEAR",
                    "output" : 17
                },
                {
                    "input" : 16,
                    "interpolation" : "LINEAR",
                    "output" : 18
                },
                {
                    "input" : 16,
                    "interpolation" : "LINEAR",
                    "output" : 19
                }
            ]
        },
        {
            "channels" : [
                {
                    "sampler" : 0,
                    "target" : {
                        "node" : 1,
                        "path" : "translation"
                    }
                },
                {
                    "sampler" : 1,
                    "target" : {
                        "node" : 1,
                        "path" : "rotation"
                    }
                },
                {
                    "sampler" : 2,
                    "target" : {
                        "node" : 1,
                        "path" : "scale"
                    }
                }
            ],
            "name" : "Cylinder.1014Action",
            "samplers" : [
                {
                    "input" : 16,
                    "interpolation" : "LINEAR",
                    "output" : 20
                },
                {
                    "input" : 16,
                    "interpolation" : "LINEAR",
                    "output" : 21
                },
                {
                    "input" : 16,
                    "interpolation" : "LINEAR",
                    "output" : 22
                }
            ]
        },
        {
            "channels" : [
                {
                    "sampler" : 0,
                    "target" : {
                        "node" : 2,
                        "path" : "translation"
                    }
                },
                {
                    "sampler" : 1,
                    "target" : {
                        "node" : 2,
                        "path" : "rotation"
                    }
                },
                {
                    "sampler" : 2,
                    "target" : {
                        "node" : 2,
                        "path" : "scale"
                    }
                }
            ],
            "name" : "Cylinder.1015Action",
            "samplers" : [
                {
                    "input" : 16,
                    "interpolation" : "LINEAR",
                    "output" : 23
                },
                {
                    "input" : 16,
                    "interpolation" : "LINEAR",
                    "output" : 24
                },
                {
                    "input" : 16,
                    "interpolation" : "LINEAR",
                    "output" : 25
                }
            ]
        },
        {
            "channels" : [
                {
                    "sampler" : 0,
                    "target" : {
                        "node" : 3,
                        "path" : "translation"
                    }
                },
                {
                    "sampler" : 1,
                    "target" : {
                        "node" : 3,
                        "path" : "rotation"
                    }
                },
                {
                    "sampler" : 2,
                    "target" : {
                        "node" : 3,
                        "path" : "scale"
                    }
                }
            ],
            "name" : "Cylinder.1016Action",
            "samplers" : [
                {
                    "input" : 16,
                    "interpolation" : "LINEAR",
                    "output" : 26
                },
                {
                    "input" : 16,
                    "interpolation" : "LINEAR",
                    "output" : 27
                },
                {
                    "input" : 16,
                    "interpolation" : "LINEAR",
                    "output" : 28
                }
            ]
        },
        {
            "channels" : [
                {
                    "sampler" : 0,
                    "target" : {
                        "node" : 4,
                        "path" : "translation"
                    }
                },
                {
                    "sampler" : 1,
                    "target" : {
                        "node" : 4,
                        "path" : "rotation"
                    }
                },
                {
                    "sampler" : 2,
                    "target" : {
                        "node" : 4,
                        "path" : "scale"
                    }
                }
            ],
            "name" : "Cylinder.1017Action",
            "samplers" : [
                {
                    "input" : 16,
                    "interpolation" : "LINEAR",
                    "output" : 29
                },
                {
                    "input" : 16,
                    "interpolation" : "LINEAR",
                    "output" : 30
                },
                {
                    "input" : 16,
                    "interpolation" : "LINEAR",
                    "output" : 31
                }
            ]
        }
    ],
    "materials" : [
        {
            "doubleSided" : true,
            "emissiveFactor" : [
                0.4263727366924286,
                0.3838924169540405,
                0.4236847758293152
            ],
            "name" : "Material.263",
            "pbrMetallicRoughness" : {
                "baseColorFactor" : [
                    0.4154689610004425,
                    0.4154689610004425,
                    0.4154689610004425,
                    1
                ],
                "metallicFactor" : 0
            }
        }
    ],
    "meshes" : [
        {
            "name" : "Cylinder",
            "primitives" : [
                {
                    "attributes" : {
                        "POSITION" : 0,
                        "NORMAL" : 1,
                        "TEXCOORD_0" : 2
                    },
                    "indices" : 3,
                    "material" : 0
                }
            ]
        },
        {
            "name" : "Cylinder.1395",
            "primitives" : [
                {
                    "attributes" : {
                        "POSITION" : 4,
                        "NORMAL" : 5,
                        "TEXCOORD_0" : 6
                    },
                    "indices" : 3,
                    "material" : 0
                }
            ]
        },
        {
            "name" : "Cylinder.1396",
            "primitives" : [
                {
                    "attributes" : {
                        "POSITION" : 7,
                        "NORMAL" : 8,
                        "TEXCOORD_0" : 9
                    },
                    "indices" : 3,
                    "material" : 0
                }
            ]
        },
        {
            "name" : "Cylinder.1397",
            "primitives" : [
                {
                    "attributes" : {
                        "POSITION" : 10,
                        "NORMAL" : 11,
                        "TEXCOORD_0" : 12
                    },
                    "indices" : 3,
                    "material" : 0
                }
            ]
        },
        {
            "name" : "Cylinder.1398",
            "primitives" : [
                {
                    "attributes" : {
                        "POSITION" : 13,
                        "NORMAL" : 14,
                        "TEXCOORD_0" : 15
                    },
                    "indices" : 3,
                    "material" : 0
                }
            ]
        }
    ],
    "accessors" : [
        {
            "bufferView" : 0,
            "componentType" : 5126,
            "count" : 1295,
            "max" : [
                2,
                0.10920995473861694,
                2
            ],
            "min" : [
                -2,
                -0.5,
                -2
            ],
            "type" : "VEC3"
        },
        {
            "bufferView" : 1,
            "componentType" : 5126,
            "count" : 1295,
            "type" : "VEC3"
        },
        {
            "bufferView" : 2,
            "componentType" : 5126,
            "count" : 1295,
            "type" : "VEC2"
        },
        {
            "bufferView" : 3,
            "componentType" : 5123,
            "count" : 6168,
            "type" : "SCALAR"
        },
        {
            "bufferView" : 4,
            "componentType" : 5126,
            "count" : 1295,
            "max" : [
                2,
                0.10920995473861694,
                2
            ],
            "min" : [
                -2,
                -0.5,
                -2
            ],
            "type" : "VEC3"
        },
        {
            "bufferView" : 5,
            "componentType" : 5126,
            "count" : 1295,
            "type" : "VEC3"
        },
        {
            "bufferView" : 6,
            "componentType" : 5126,
            "count" : 1295,
            "type" : "VEC2"
        },
        {
            "bufferView" : 7,
            "componentType" : 5126,
            "count" : 1295,
            "max" : [
                2,
                0.10920995473861694,
                2
            ],
            "min" : [
                -2,
                -0.5,
                -2
            ],
            "type" : "VEC3"
        },
        {
            "bufferView" : 8,
            "componentType" : 5126,
            "count" : 1295,
            "type" : "VEC3"
        },
        {
            "bufferView" : 9,
            "componentType" : 5126,
            "count" : 1295,
            "type" : "VEC2"
        },
        {
            "bufferView" : 10,
            "componentType" : 5126,
            "count" : 1295,
            "max" : [
                2,
                0.10920995473861694,
                2
            ],
            "min" : [
                -2,
                -0.5,
                -2
            ],
            "type" : "VEC3"
        },
        {
            "bufferView" : 11,
            "componentType" : 5126,
            "count" : 1295,
            "type" : "VEC3"
        },
        {
            "bufferView" : 12,
            "componentType" : 5126,
            "count" : 1295,
            "type" : "VEC2"
        },
        {
            "bufferView" : 13,
            "componentType" : 5126,
            "count" : 1295,
            "max" : [
                2,
                0.10920995473861694,
                2
            ],
            "min" : [
                -2,
                -0.5,
                -2
            ],
            "type" : "VEC3"
        },
        {
            "bufferView" : 14,
            "componentType" : 5126,
            "count" : 1295,
            "type" : "VEC3"
        },
        {
            "bufferView" : 15,
            "componentType" : 5126,
            "count" : 1295,
            "type" : "VEC2"
        },
        {
            "bufferView" : 16,
            "componentType" : 5126,
            "count" : 81,
            "max" : [
                3.3333333333333335
            ],
            "min" : [
                0
            ],
            "type" : "SCALAR"
        },
        {
            "bufferView" : 17,
            "componentType" : 5126,
            "count" : 81,
            "type" : "VEC3"
        },
        {
            "bufferView" : 18,
            "componentType" : 5126,
            "count" : 81,
            "type" : "VEC4"
        },
        {
            "bufferView" : 19,
            "componentType" : 5126,
            "count" : 81,
            "type" : "VEC3"
        },
        {
            "bufferView" : 20,
            "componentType" : 5126,
            "count" : 81,
            "type" : "VEC3"
        },
        {
            "bufferView" : 21,
            "componentType" : 5126,
            "count" : 81,
            "type" : "VEC4"
        },
        {
            "bufferView" : 22,
            "componentType" : 5126,
            "count" : 81,
            "type" : "VEC3"
        },
        {
            "bufferView" : 23,
            "componentType" : 5126,
            "count" : 81,
            "type" : "VEC3"
        },
        {
            "bufferView" : 24,
            "componentType" : 5126,
            "count" : 81,
            "type" : "VEC4"
        },
        {
            "bufferView" : 25,
            "componentType" : 5126,
            "count" : 81,
            "type" : "VEC3"
        },
        {
            "bufferView" : 26,
            "componentType" : 5126,
            "count" : 81,
            "type" : "VEC3"
        },
        {
            "bufferView" : 27,
            "componentType" : 5126,
            "count" : 81,
            "type" : "VEC4"
        },
        {
            "bufferView" : 28,
            "componentType" : 5126,
            "count" : 81,
            "type" : "VEC3"
        },
        {
            "bufferView" : 29,
            "componentType" : 5126,
            "count" : 81,
            "type" : "VEC3"
        },
        {
            "bufferView" : 30,
            "componentType" : 5126,
            "count" : 81,
            "type" : "VEC4"
        },
        {
            "bufferView" : 31,
            "componentType" : 5126,
            "count" : 81,
            "type" : "VEC3"
        }
    ],
    "bufferViews" : [
        {
            "buffer" : 0,
            "byteLength" : 15540,
            "byteOffset" : 0
        },
        {
            "buffer" : 0,
            "byteLength" : 15540,
            "byteOffset" : 15540
        },
        {
            "buffer" : 0,
            "byteLength" : 10360,
            "byteOffset" : 31080
        },
        {
            "buffer" : 0,
            "byteLength" : 12336,
            "byteOffset" : 41440
        },
        {
            "buffer" : 0,
            "byteLength" : 15540,
            "byteOffset" : 53776
        },
        {
            "buffer" : 0,
            "byteLength" : 15540,
            "byteOffset" : 69316
        },
        {
            "buffer" : 0,
            "byteLength" : 10360,
            "byteOffset" : 84856
        },
        {
            "buffer" : 0,
            "byteLength" : 15540,
            "byteOffset" : 95216
        },
        {
            "buffer" : 0,
            "byteLength" : 15540,
            "byteOffset" : 110756
        },
        {
            "buffer" : 0,
            "byteLength" : 10360,
            "byteOffset" : 126296
        },
        {
            "buffer" : 0,
            "byteLength" : 15540,
            "byteOffset" : 136656
        },
        {
            "buffer" : 0,
            "byteLength" : 15540,
            "byteOffset" : 152196
        },
        {
            "buffer" : 0,
            "byteLength" : 10360,
            "byteOffset" : 167736
        },
        {
            "buffer" : 0,
            "byteLength" : 15540,
            "byteOffset" : 178096
        },
        {
            "buffer" : 0,
            "byteLength" : 15540,
            "byteOffset" : 193636
        },
        {
            "buffer" : 0,
            "byteLength" : 10360,
            "byteOffset" : 209176
        },
        {
            "buffer" : 0,
            "byteLength" : 324,
            "byteOffset" : 219536
        },
        {
            "buffer" : 0,
            "byteLength" : 972,
            "byteOffset" : 219860
        },
        {
            "buffer" : 0,
            "byteLength" : 1296,
            "byteOffset" : 220832
        },
        {
            "buffer" : 0,
            "byteLength" : 972,
            "byteOffset" : 222128
        },
        {
            "buffer" : 0,
            "byteLength" : 972,
            "byteOffset" : 223100
        },
        {
            "buffer" : 0,
            "byteLength" : 1296,
            "byteOffset" : 224072
        },
        {
            "buffer" : 0,
            "byteLength" : 972,
            "byteOffset" : 225368
        },
        {
            "buffer" : 0,
            "byteLength" : 972,
            "byteOffset" : 226340
        },
        {
            "buffer" : 0,
            "byteLength" : 1296,
            "byteOffset" : 227312
        },
        {
            "buffer" : 0,
            "byteLength" : 972,
            "byteOffset" : 228608
        },
        {
            "buffer" : 0,
            "byteLength" : 972,
            "byteOffset" : 229580
        },
        {
            "buffer" : 0,
            "byteLength" : 1296,
            "byteOffset" : 230552
        },
        {
            "buffer" : 0,
            "byteLength" : 972,
            "byteOffset" : 231848
        },
        {
            "buffer" : 0,
            "byteLength" : 972,
            "byteOffset" : 232820
        },
        {
            "buffer" : 0,
            "byteLength" : 1296,
            "byteOffset" : 233792
        },
        {
            "buffer" : 0,
            "byteLength" : 972,
            "byteOffset" : 235088
        }
    ],
    "buffers" : [
        {
            "byteLength" : 236060,
            "uri" : "data:application/octet-stream;base64,"
        }
    ]
}
