{
    "asset" : {
        "generator" : "Khronos glTF Blender I/O v1.6.16",
        "version" : "2.0"
    },
    "scene" : 0,
    "scenes" : [
        {
            "extras" : {
                "glTF2ExportSettings" : {
                    "export_extras" : 1,
                    "export_format" : "GLTF_EMBEDDED",
                    "use_selection" : 1
                }
            },
            "name" : "Scene",
            "nodes" : [
                0
            ]
        }
    ],
    "nodes" : [
        {
            "mesh" : 0,
            "name" : "path119",
            "rotation" : [
                0.5354680418968201,
                0.46089625358581543,
                -0.45600974559783936,
                0.5412060022354126
            ],
            "scale" : [
                61.28932189941406,
                61.28932189941406,
                61.28932189941406
            ]
        }
    ],
    "animations" : [
        {
            "channels" : [
                {
                    "sampler" : 0,
                    "target" : {
                        "node" : 0,
                        "path" : "translation"
                    }
                },
                {
                    "sampler" : 1,
                    "target" : {
                        "node" : 0,
                        "path" : "rotation"
                    }
                },
                {
                    "sampler" : 2,
                    "target" : {
                        "node" : 0,
                        "path" : "scale"
                    }
                }
            ],
            "name" : "path119Action",
            "samplers" : [
                {
                    "input" : 4,
                    "interpolation" : "LINEAR",
                    "output" : 5
                },
                {
                    "input" : 4,
                    "interpolation" : "LINEAR",
                    "output" : 6
                },
                {
                    "input" : 4,
                    "interpolation" : "LINEAR",
                    "output" : 7
                }
            ]
        }
    ],
    "materials" : [
        {
            "alphaMode" : "BLEND",
            "emissiveFactor" : [
                0.5441299676895142,
                0.5277116894721985,
                0.48020726442337036
            ],
            "name" : "SVGMat.063",
            "pbrMetallicRoughness" : {
                "baseColorFactor" : [
                    0.6500087976455688,
                    0.6500087976455688,
                    0.6500087976455688,
                    1
                ],
                "metallicFactor" : 0,
                "roughnessFactor" : 0.5
            }
        }
    ],
    "meshes" : [
        {
            "name" : "path119.034",
            "primitives" : [
                {
                    "attributes" : {
                        "POSITION" : 0,
                        "NORMAL" : 1,
                        "TEXCOORD_0" : 2
                    },
                    "indices" : 3,
                    "material" : 0
                }
            ]
        }
    ],
    "accessors" : [
        {
            "bufferView" : 0,
            "componentType" : 5126,
            "count" : 3264,
            "max" : [
                0.05746348947286606,
                0.02500000037252903,
                0.03536130115389824
            ],
            "min" : [
                -0.08680687099695206,
                -0.02500000037252903,
                -0.03389295935630798
            ],
            "type" : "VEC3"
        },
        {
            "bufferView" : 1,
            "componentType" : 5126,
            "count" : 3264,
            "type" : "VEC3"
        },
        {
            "bufferView" : 2,
            "componentType" : 5126,
            "count" : 3264,
            "type" : "VEC2"
        },
        {
            "bufferView" : 3,
            "componentType" : 5123,
            "count" : 5988,
            "type" : "SCALAR"
        },
        {
            "bufferView" : 4,
            "componentType" : 5126,
            "count" : 81,
            "max" : [
                3.3333333333333335
            ],
            "min" : [
                0
            ],
            "type" : "SCALAR"
        },
        {
            "bufferView" : 5,
            "componentType" : 5126,
            "count" : 81,
            "type" : "VEC3"
        },
        {
            "bufferView" : 6,
            "componentType" : 5126,
            "count" : 81,
            "type" : "VEC4"
        },
        {
            "bufferView" : 7,
            "componentType" : 5126,
            "count" : 81,
            "type" : "VEC3"
        }
    ],
    "bufferViews" : [
        {
            "buffer" : 0,
            "byteLength" : 39168,
            "byteOffset" : 0
        },
        {
            "buffer" : 0,
            "byteLength" : 39168,
            "byteOffset" : 39168
        },
        {
            "buffer" : 0,
            "byteLength" : 26112,
            "byteOffset" : 78336
        },
        {
            "buffer" : 0,
            "byteLength" : 11976,
            "byteOffset" : 104448
        },
        {
            "buffer" : 0,
            "byteLength" : 324,
            "byteOffset" : 116424
        },
        {
            "buffer" : 0,
            "byteLength" : 972,
            "byteOffset" : 116748
        },
        {
            "buffer" : 0,
            "byteLength" : 1296,
            "byteOffset" : 117720
        },
        {
            "buffer" : 0,
            "byteLength" : 972,
            "byteOffset" : 119016
        }
    ],
    "buffers" : [
        {
            "byteLength" : 119988,
            "uri" : "data:application/octet-stream;base64,"
        }
    ]
}
